<svg id="Flat" height="512" viewBox="0 0 512 512" width="512" xmlns="http://www.w3.org/2000/svg"><g><path d="m24 478v-390h464v390a10 10 0 0 1 -10 10h-444a10 10 0 0 1 -10-10z" fill="#fef6f6"/><path d="m56 320h80v64h-80z" fill="#80daff"/><path d="m136 320h80v64h-80z" fill="#f47b79"/><path d="m216 320h240v64h-240z" fill="#fbd373"/><path d="m296 256h80v64h-80z" fill="#f47b79"/><path d="m24 120v-54a10 10 0 0 1 10-10h444a10 10 0 0 1 10 10v54z" fill="#f47b79"/><rect fill="#fbd373" height="64" rx="20" width="48" x="232" y="24"/><rect fill="#fbd373" height="64" rx="20" width="48" x="408" y="24"/><rect fill="#fbd373" height="64" rx="20" width="48" x="320" y="24"/><rect fill="#fbd373" height="64" rx="20" width="48" x="144" y="24"/><rect fill="#fbd373" height="64" rx="20" width="48" x="56" y="24"/><path d="m56 192h80v64h-80z" fill="#80daff"/><path d="m136 192h80v64h-80z" fill="#f47b79"/><path d="m56 256h240v64h-240z" fill="#fbd373"/><path d="m216 192h240v64h-240z" fill="#fbd373"/><path d="m376 256h80v64h-80z" fill="#80daff"/><path d="m296 384h80v64h-80z" fill="#f47b79"/><path d="m56 384h240v64h-240z" fill="#fbd373"/><path d="m376 384h80v64h-80z" fill="#80daff"/><g fill="#fefbfb"><path d="m240 216h40v16h-40z"/><path d="m296 216h136v16h-136z"/><path d="m240 344h40v16h-40z"/><path d="m296 344h136v16h-136z"/><path d="m80 280h136v16h-136z"/><path d="m232 280h40v16h-40z"/><path d="m80 408h136v16h-136z"/><path d="m232 408h40v16h-40z"/></g><path d="m88 152h16v16h-16z" fill="#f47b79"/><path d="m168 152h16v16h-16z" fill="#f47b79"/><path d="m248 152h16v16h-16z" fill="#f47b79"/><path d="m328 152h16v16h-16z" fill="#f47b79"/><path d="m408 152h16v16h-16z" fill="#f47b79"/></g></svg>