<svg id="Capa_1" enable-background="new 0 0 512 512" height="512" viewBox="0 0 512 512" width="512" xmlns="http://www.w3.org/2000/svg"><g><path d="m420.058 140.832-85.717-85.717h-237.625l-4.621-6.593c-12.377.562-22.24 10.772-22.24 23.288v416.875c0 12.876 10.438 23.315 23.315 23.315h307.76c12.516 0 22.726-9.863 23.288-22.24l-4.16-4.16c0-13.855 0-329.205 0-344.768z" fill="#0055a3"/><path d="m92.095 48.522c-.042.925-.027 414.796-.027 417.951 0 12.876 10.439 23.315 23.315 23.315 2.203 0 307.93.015 308.836-.027.042-.933.027-342.194.027-344.741l-96.525-96.525c-1.708-.001-234.692-.016-235.626.027z" fill="#004281"/><path d="m402.801 70.052-26.586-70.052h-234.551c-12.877 0-23.315 10.439-23.315 23.315v416.875c0 12.876 10.439 23.315 23.315 23.315h275.638c9.298 0 17.322-5.444 21.065-13.316h15.831v-365.823z" fill="#eaf6ff"/><path d="m440.618 80.584v15.941 343.665c0 12.877-10.439 23.315-23.315 23.315h32.122c12.877 0 23.315-10.439 23.315-23.315v-343.665l-18.541-12.158z" fill="#d8ecfe"/><path d="m309.032 346.637h-255.783c-7.726 0-13.989-6.263-13.989-13.989v-111.813c0-7.726 6.263-13.989 13.989-13.989h255.782c7.726 0 13.989 6.263 13.989 13.989v111.813c.001 7.726-6.262 13.989-13.988 13.989z" fill="#f47c7c"/><g fill="#fdd5d5"><path d="m92.989 237.207h-17.466c-4.27 0-7.735 3.469-7.726 7.741v.048.002c0 65.662-.068 61.021.151 62.12.275 4.119 3.683 7.213 7.701 7.213h.029c.528-.002 12.982-.05 17.958-.137 18.534-.323 31.985-16.483 31.985-38.425 0-23.065-13.114-38.562-32.632-38.562zm.377 61.537c-2.301.04-6.361.072-10.018.095-.077-24.12-.031-15.453-.085-46.179h9.726c12.666 0 17.179 11.938 17.179 23.11 0 11.289-5.196 22.771-16.802 22.974z"/><path d="m291.72 293.657c-3.27-2.74-8.143-2.312-10.884.959-3.604 4.298-8.488 6.207-14.097 6.207-13.261 0-24.049-10.789-24.049-24.049 0-13.261 10.788-24.049 24.049-24.049 4.82 0 9.469 1.419 13.442 4.103 3.536 2.388 8.339 1.459 10.727-2.077s1.459-8.339-2.077-10.727c-6.537-4.416-14.176-6.75-22.092-6.75-21.782 0-39.502 17.72-39.502 39.502 0 21.781 17.72 39.502 39.502 39.502 10.227 0 19.43-3.964 25.94-11.734 2.741-3.273 2.312-8.146-.959-10.887z"/><path d="m177.341 237.272c-21.782 0-39.502 17.72-39.502 39.502 0 21.781 17.72 39.502 39.502 39.502s39.502-17.721 39.502-39.502c0-21.782-17.72-39.502-39.502-39.502zm0 63.551c-13.261 0-24.049-10.789-24.049-24.049 0-13.261 10.788-24.049 24.049-24.049s24.049 10.788 24.049 24.049c.001 13.26-10.787 24.049-24.049 24.049z"/></g><g><path d="m424.478 161.402h-237.563c-4.267 0-7.726-3.459-7.726-7.726s3.459-7.726 7.726-7.726h237.563c4.268 0 7.726 3.459 7.726 7.726s-3.459 7.726-7.726 7.726z" fill="#82aee3"/></g><g><path d="m424.478 219.562h-61.176c-4.268 0-7.726-3.459-7.726-7.726s3.459-7.726 7.726-7.726h61.176c4.268 0 7.726 3.459 7.726 7.726s-3.459 7.726-7.726 7.726z" fill="#82aee3"/></g><g><path d="m424.478 277.721h-61.176c-4.268 0-7.726-3.459-7.726-7.726s3.459-7.726 7.726-7.726h61.176c4.268 0 7.726 3.459 7.726 7.726s-3.459 7.726-7.726 7.726z" fill="#82aee3"/></g><g><path d="m424.478 335.881h-61.176c-4.268 0-7.726-3.459-7.726-7.726s3.459-7.726 7.726-7.726h61.176c4.268 0 7.726 3.459 7.726 7.726s-3.459 7.726-7.726 7.726z" fill="#82aee3"/></g><g><path d="m424.478 394.04h-237.563c-4.267 0-7.726-3.459-7.726-7.726s3.459-7.726 7.726-7.726h237.563c4.268 0 7.726 3.459 7.726 7.726s-3.459 7.726-7.726 7.726z" fill="#82aee3"/></g><path d="m399.53 96.525h73.21l-96.525-96.525v73.21c0 12.876 10.439 23.315 23.315 23.315z" fill="#b3dafe"/></g></svg>