<svg id="Layer_1" height="512" viewBox="0 0 512 512" width="512" xmlns="http://www.w3.org/2000/svg" data-name="Layer 1"><path d="m280.28 302.34a31.283 31.283 0 0 1 -5.28-21.74 31.6 31.6 0 0 0 .26-4 31.194 31.194 0 0 0 -5.53-17.73l-131.91-191.15a32.374 32.374 0 1 0 -53.35 36.69l86.11 124.78 84.18 101.84c2.99-11.63 16.14-19.64 31.64-19.82z" fill="#c79a83"/><path d="m200.58 229.19-86.11-124.78a32.286 32.286 0 0 1 8.3-44.97 32.8 32.8 0 0 1 3.382-2.027 32.347 32.347 0 0 0 -41.682 47l86.11 124.78 84.18 101.84c1.911-7.433 7.975-13.382 16.147-16.759z" fill="#a07c6b"/><circle cx="269.11" cy="448.14" fill="#f2cd6d" r="38.93"/><path d="m315.77 412.28 54.14 29.32-22.99 15.81z" fill="#af826e"/><path d="m369.91 441.6 24.36 13.19a21.89 21.89 0 0 1 -8.69 12.09l-15.78 10.85a22.026 22.026 0 0 1 -30.6-5.63 7.625 7.625 0 0 1 -1.37-4.37 7.71 7.71 0 0 1 3.35-6.37l5.74-3.95z" fill="#c79a83"/><path d="m358.62 265.68v.01l-23.56 51.02-13.31.86-17.59-3.76 27.88-60.36a76.871 76.871 0 0 0 26.58 12.23z" fill="#799091"/><path d="m297.32 312.35-18.82 87.74-.43-.09c-3.57-.76-20.95.1-29.34-14.07a122.328 122.328 0 0 0 6.03-54.9c2.99-11.63 16.14-19.64 31.64-19.82a46.913 46.913 0 0 1 10.49 1.05z" fill="#4689d3"/><path d="m321.75 317.57-7.16 33.41-4.77 22.22-6.89 32.12-24.43-5.23 18.82-87.74 6.84 1.46z" fill="#5fa8ed"/><path d="m452.89 450.32a4.052 4.052 0 0 1 -2.27 6.26l-26.07 7.02a24.256 24.256 0 0 1 -17.87-2.09l-12.41-6.72-24.36-13.19-54.14-29.32v-.01l-12.84-6.95 6.89-32.12 113.48 41.14a19.421 19.421 0 0 1 9.13 6.97z" fill="#c1d1e5"/><path d="m473.75 390.89a4.062 4.062 0 0 1 -1.05 6.73l-45 19.01a18.977 18.977 0 0 0 -4.4-2.29l-113.48-41.14 4.77-22.22 120.06 8.82a19.232 19.232 0 0 0 6.59-.67z" fill="#d4e1f4"/><path d="m477.47 330.47a4.068 4.068 0 0 1 -.24 6.7l-30.86 19.67a19.013 19.013 0 0 1 -5.13 2.29 19.232 19.232 0 0 1 -6.59.67l-120.06-8.82 7.16-33.41 13.31-.86 104.76-6.76a24.283 24.283 0 0 1 16.27 4.69z" fill="#c1d1e5"/><path d="m95.75 382.98-48.93 48.84a121.413 121.413 0 0 1 -34.98-72.01 88.324 88.324 0 0 1 83.91 23.17z" fill="#ea8e60"/><path d="m95.75 382.98a87.942 87.942 0 0 1 23.21 83.75 121.8 121.8 0 0 1 -72.14-34.91z" fill="#d8825b"/><path d="m133.31 345.49 86.48 86.33a122.233 122.233 0 0 1 -100.83 34.91 87.942 87.942 0 0 0 -23.21-83.75z" fill="#ce7b51"/><path d="m133.31 345.49-37.56 37.49a88.324 88.324 0 0 0 -83.91-23.17 121.774 121.774 0 0 1 34.98-100.65z" fill="#df8a59"/><path d="m254.76 331.03a121.817 121.817 0 0 1 -34.97 100.79l-86.48-86.33 37.72-37.65a88.335 88.335 0 0 0 83.72 23.21c0-.01 0-.01.01-.02z" fill="#ba6847"/><path d="m171.03 307.84-37.72 37.65-86.49-86.33a122.212 122.212 0 0 1 100.95-34.91v.01a87.951 87.951 0 0 0 23.26 83.58z" fill="#cc764c"/><path d="m219.79 259.16-48.76 48.68a87.951 87.951 0 0 1 -23.26-83.58v-.01a122.158 122.158 0 0 1 72.02 34.91z" fill="#bf6743"/><path d="m254.76 331.03c-.01.01-.01.01-.01.02a88.335 88.335 0 0 1 -83.72-23.21l48.76-48.68a121.549 121.549 0 0 1 34.97 71.87z" fill="#ad5a3d"/><path d="m41.666 357.571a88.86 88.86 0 0 0 -29.826 2.239 121.413 121.413 0 0 0 34.98 72.01l16.319-16.289a121.391 121.391 0 0 1 -21.239-55.721c-.09-.745-.16-1.493-.234-2.239z" fill="#c17a5b"/><path d="m147.85 224.41c.012-.05.15-.1.15-.15v-.01a122.37 122.37 0 0 0 -101.065 34.91l16.307 16.334a123.425 123.425 0 0 1 13.779-16.334 121.993 121.993 0 0 1 70.829-34.75z" fill="#aa6549"/><path d="m63.139 415.531-16.319 16.289a121.8 121.8 0 0 0 72.14 34.91c.572-2.284 1.04-4.588 1.426-6.9a122.661 122.661 0 0 1 -57.247-44.3z" fill="#b26b4f"/><path d="m63.184 275.494-16.364-16.334a121.774 121.774 0 0 0 -34.98 100.65 88.86 88.86 0 0 1 29.826-2.239 121.829 121.829 0 0 1 21.518-82.077z" fill="#b27252"/><path d="m474.545 149.51 5.128-11.144-22.913-10.542 9.473-20.515 6.684 3.075 5.128-11.144-6.67-3.068 3.158-6.84-8.033-12.332-6.269 14.044-25.095-11.544 9.317-20.179-11.137-5.143-9.325 20.192-25.091-11.546 5.337-11.982h-13.321l-3.165 6.858-6.651-3.06-5.128 11.144 6.637 3.053-9.473 20.513-22.9-10.537-5.127 11.145 22.886 10.529-9.474 20.513-27.943-12.856-5.128 11.145 27.928 12.849-9.473 20.515-24.105-11.091-5.128 11.145 24.1 11.086-9.473 20.515-10.49-4.827-5.127 11.145 10.474 4.819-5.59 12.108 11.137 5.142 5.6-12.122 25.1 11.546-11.75 25.447 11.137 5.142 11.757-25.462 25.095 11.546-5.6 12.131 11.138 5.142 5.608-12.145 10.517 4.838 5.127-11.144-10.5-4.832 9.473-20.515 24.4 11.228 5.128-11.144-24.389-11.222 9.456-20.515 27.942 12.856 5.128-11.144-27.928-12.849 9.474-20.516zm-19.457-47.329-9.473 20.519-25.1-11.546 9.473-20.515zm-61.335-28.219 25.1 11.546-9.473 20.515-25.099-11.546zm-14.615 31.653 25.1 11.546-9.472 20.515-25.1-11.546zm-14.616 31.652 25.1 11.546-9.473 20.515-25.099-11.545zm-24.088 52.168 9.473-20.515 25.093 11.546-9.472 20.515zm61.335 28.22-25.1-11.546 9.473-20.516 25.1 11.546zm14.616-31.655-25.1-11.546 9.473-20.515 25.1 11.546zm14.615-31.651-25.1-11.546 9.473-20.515 25.1 11.546z" fill="#d4e1f4"/><path d="m103.233 94.618a5.993 5.993 0 0 1 -5-2.676l-1.142-1.716a6 6 0 1 1 9.988-6.649l1.143 1.716a6 6 0 0 1 -4.989 9.325z" fill="#f4f8fc"/><path d="m156.136 174.091a5.993 5.993 0 0 1 -5-2.676l-42.766-64.244a6 6 0 0 1 9.988-6.65l42.766 64.245a6 6 0 0 1 -4.988 9.325z" fill="#f4f8fc"/><path d="m476.34 142.04a104.623 104.623 0 0 0 -1.58-38.28 82.283 82.283 0 0 0 -6.36-17.66c-6.51-13.02-16.44-23.37-29.42-29.35-.01 0-.01-.01-.02-.01-12.99-5.97-27.33-6.78-41.47-3.25a82.369 82.369 0 0 0 -17.55 6.64h-.01a105.043 105.043 0 0 0 -30.18 23.65 125.514 125.514 0 0 0 -19.21 28.71c-.42.84-.82 1.7-1.22 2.56a127.1 127.1 0 0 0 -9.62 30.06 108.849 108.849 0 0 0 -.7 37.15 85.126 85.126 0 0 0 7.71 24.52c6.51 13.02 16.44 23.37 29.42 29.35.01 0 .01.01.02.01 12.97 5.97 27.3 6.79 41.45 3.28v-.01a84.954 84.954 0 0 0 23.71-10.07h.01a109.466 109.466 0 0 0 27.88-24.72 127.076 127.076 0 0 0 16.6-26.78c.4-.86.78-1.72 1.15-2.58a125.146 125.146 0 0 0 9.39-33.22zm-25.96-109.98c49.11 22.59 65.27 92.12 36.1 155.3-26.49 57.36-81.25 89.76-127.86 78.33v-.01a76.871 76.871 0 0 1 -26.58-12.23c-39-27.94-49.89-90.55-23.4-147.91 29.17-63.18 92.63-96.07 141.74-73.48z" fill="#a4bfc1"/></svg>