<svg id="Fill_Outline" height="512" viewBox="0 0 64 64" width="512" xmlns="http://www.w3.org/2000/svg" data-name="Fill Outline"><g id="Color"><rect fill="#ade8f4" height="36" rx="4" width="52" x="6" y="13"/><path d="m55 39v-20a3 3 0 0 0 -3-3h-2a3 3 0 0 1 -3-3h-37a4 4 0 0 0 -4 4v28a4 4 0 0 0 4 4h44a4 4 0 0 0 4-4v-3a3 3 0 0 1 -3-3z" fill="#48cae4"/><path d="m16 57h32l-3.318-1.244a7.215 7.215 0 0 1 -4.682-6.756h-16a7.215 7.215 0 0 1 -4.682 6.756z" fill="#d0d8da"/><path d="m14 57h36a4 4 0 0 1 4 4 0 0 0 0 1 0 0h-44a0 0 0 0 1 0 0 4 4 0 0 1 4-4z" fill="#e9f1f2"/><path d="m13 3h32v38h-32z" fill="#e9f1f2"/><path d="m34 25a11 11 0 0 1 -11-11v-11h-10v38h32v-16z" fill="#d0d8da"/><circle cx="23" cy="13" fill="#ade8f4" r="6"/><path d="m23 19a6.034 6.034 0 0 0 1.156-.114 10.931 10.931 0 0 1 -1.156-4.886v-7a6 6 0 0 0 0 12z" fill="#48cae4"/><circle cx="23" cy="13" fill="#f9dbaf" r="2"/><path d="m25 17a2 2 0 0 0 -4 0v1.651a5.905 5.905 0 0 0 4 0z" fill="#f9dbaf"/><path d="m23.05 15h-.05a2 2 0 0 1 0-4v3c0 .34.02.67.05 1z" fill="#edb88e"/><path d="m24.14 18.89a6.12 6.12 0 0 1 -1.14.11 6.049 6.049 0 0 1 -2-.35v-1.65a2.006 2.006 0 0 1 2-2h.05a10.833 10.833 0 0 0 1.09 3.89z" fill="#edb88e"/><path d="m33 9h8v4h-8z" fill="#ade8f4"/><path d="m33 9h4v4h-4z" fill="#48cae4"/><circle cx="44" cy="36" fill="#ff7373" r="9"/><path d="m49 40a8.99 8.99 0 0 1 -8.349-12.349 9 9 0 1 0 11.7 11.7 8.963 8.963 0 0 1 -3.351.649z" fill="#ef5350"/><path d="m49 34h-3v-3h-4v3h-3v4h3v3h4v-3h3z" fill="#ade8f4"/><path d="m44 34v-3h-2v3h-3v4h3v3h4v-3h3v-2h-3a2 2 0 0 1 -2-2z" fill="#48cae4"/><path d="m46 41v-1.523a9.008 9.008 0 0 1 -5.477-5.477h-1.523v4h3v3z" fill="#00b4d8"/><path d="m40 49h-16a7.215 7.215 0 0 1 -4.682 6.756l-3.318 1.244h6z" fill="#b8bebf"/><path d="m16 59a2 2 0 0 1 -2-2 4 4 0 0 0 -4 4h44a3.955 3.955 0 0 0 -.555-2z" fill="#d0d8da"/></g><g id="Outline_copy" fill="#464a51" data-name="Outline copy"><path d="m54 12h-5a1 1 0 0 0 0 2h5a3 3 0 0 1 3 3v28a3 3 0 0 1 -3 3h-44a3 3 0 0 1 -3-3v-28a3 3 0 0 1 3-3h2v12a1 1 0 0 0 2 0v-22h30v22a9.988 9.988 0 0 0 -9.159 14h-20.841v-10a1 1 0 0 0 -2 0v11a1 1 0 0 0 1 1h23.019a9.956 9.956 0 0 0 13.3 2.459 1 1 0 1 0 -1.066-1.691 8.019 8.019 0 1 1 2.516-2.516 1 1 0 1 0 1.691 1.066 9.986 9.986 0 0 0 -6.46-15.118v-23.2a1 1 0 0 0 -1-1h-32a1 1 0 0 0 -1 1v9h-2a5.006 5.006 0 0 0 -5 5v28a5.006 5.006 0 0 0 5 5h12.914a6.246 6.246 0 0 1 -3.947 4.819l-3.149 1.181h-1.818a5.006 5.006 0 0 0 -5 5 1 1 0 0 0 1 1h22a1 1 0 0 0 0-2h-20.829a3.006 3.006 0 0 1 2.829-2h36a3.006 3.006 0 0 1 2.829 2h-16.829a1 1 0 0 0 0 2h18a1 1 0 0 0 1-1 5.006 5.006 0 0 0 -5-5h-1.819l-3.148-1.181a6.245 6.245 0 0 1 -3.947-4.819h12.914a5.006 5.006 0 0 0 5-5v-28a5.006 5.006 0 0 0 -5-5zm-11.049 44h-21.901a8.254 8.254 0 0 0 3.872-6h14.156a8.255 8.255 0 0 0 3.873 6z"/><path d="m23 6a7 7 0 1 0 7 7 7.008 7.008 0 0 0 -7-7zm-1 7a1 1 0 1 1 1 1 1 1 0 0 1 -1-1zm0 4.9v-.9a1 1 0 0 1 2 0v.9a5 5 0 0 1 -2 0zm4-.923a2.979 2.979 0 0 0 -.78-1.977 3 3 0 1 0 -4.44 0 2.979 2.979 0 0 0 -.78 1.976 5 5 0 1 1 6 0z"/><path d="m42 11a1 1 0 0 0 -1-1h-8a1 1 0 0 0 -1 1v4a1 1 0 0 0 1 1h8a1 1 0 0 0 1-1zm-2 3h-6v-2h6z"/><path d="m41 18h-5a1 1 0 0 0 0 2h5a1 1 0 0 0 0-2z"/><path d="m28 23a1 1 0 0 0 1 1h12a1 1 0 0 0 0-2h-12a1 1 0 0 0 -1 1z"/><path d="m36 27a1 1 0 0 0 -1-1h-6a1 1 0 0 0 0 2h6a1 1 0 0 0 1-1z"/><path d="m33 31a1 1 0 0 0 -1-1h-3a1 1 0 0 0 0 2h3a1 1 0 0 0 1-1z"/><path d="m19 22a1 1 0 0 0 0 2h6a1 1 0 0 0 0-2z"/><path d="m17 28h8a1 1 0 0 0 0-2h-8a1 1 0 0 0 0 2z"/><path d="m17 32h8a1 1 0 0 0 0-2h-8a1 1 0 0 0 0 2z"/><path d="m17 36h8a1 1 0 0 0 0-2h-8a1 1 0 0 0 0 2z"/><path d="m29 34a1 1 0 0 0 0 2h2a1 1 0 0 0 0-2z"/><path d="m42 42h4a1 1 0 0 0 1-1v-2h2a1 1 0 0 0 1-1v-4a1 1 0 0 0 -1-1h-2v-2a1 1 0 0 0 -1-1h-4a1 1 0 0 0 -1 1v2h-2a1 1 0 0 0 -1 1v4a1 1 0 0 0 1 1h2v2a1 1 0 0 0 1 1zm-2-5v-2h2a1 1 0 0 0 1-1v-2h2v2a1 1 0 0 0 1 1h2v2h-2a1 1 0 0 0 -1 1v2h-2v-2a1 1 0 0 0 -1-1z"/></g></svg>