<svg id="icons" enable-background="new 0 0 64 64" height="512" viewBox="0 0 64 64" width="512" xmlns="http://www.w3.org/2000/svg"><path d="m23.01 31h18.021v6h-18.021z" fill="#fff"/><path d="m5 31h18.01v6h-18.01z" fill="#48cfad"/><path d="m41.03 25h17.97v6h-17.97z" fill="#fff"/><path d="m41.03 13h17.97v6h-17.97z" fill="#48cfad"/><g fill="#fff"><path d="m41.03 31h17.97v6h-17.97z"/><path d="m23.01 25h18.021v6h-18.021z"/><path d="m23.01 37h18.021v6h-18.021z"/></g><path d="m5 25h18.01v6h-18.01z" fill="#48cfad"/><path d="m5 43h18.01v6h-18.01z" fill="#48cfad"/><path d="m41.03 43h17.97v6h-17.97z" fill="#fff"/><path d="m41.03 49h17.97v6h-17.97z" fill="#fff"/><path d="m5 49h18.01v6h-18.01z" fill="#48cfad"/><path d="m5 19h18.01v6h-18.01z" fill="#48cfad"/><path d="m41.03 19h17.97v6h-17.97z" fill="#fff"/><path d="m23.01 19h18.021v6h-18.021z" fill="#fff"/><path d="m41.03 37h17.97v6h-17.97z" fill="#fff"/><path d="m5 37h18.01v6h-18.01z" fill="#48cfad"/><path d="m23.01 13h18.021v6h-18.021z" fill="#48cfad"/><path d="m23.01 43h18.021v6h-18.021z" fill="#fff"/><path d="m23.01 49h18.021v6h-18.021z" fill="#fff"/><path d="m63 7v2h-62v-2c0-1.11.9-2 2-2h58c1.11 0 2 .89 2 2z" fill="#ccd1d9"/><path d="m63 9v50h-62v-50zm-4 46v-6-6-6-6-6-6-6h-17.97-18.02v6h-18.01v6 6 6 6 6 6h18.01 18.02z" fill="#e6e9ed"/><path d="m1 7.998c-.553 0-1-.447-1-1 0-1.654 1.346-3 3-3 .553 0 1 .447 1 1s-.447 1-1 1c-.552 0-1 .448-1 1 0 .553-.447 1-1 1z"/><path d="m63 7.998c-.553 0-1-.447-1-1 0-.552-.448-1-1-1-.553 0-1-.447-1-1s.447-1 1-1c1.654 0 3 1.346 3 3 0 .553-.447 1-1 1z"/><path d="m61 5.998h-58c-.553 0-1-.447-1-1s.447-1 1-1h58c.553 0 1 .447 1 1s-.447 1-1 1z"/><path d="m4.03 7.998c-.553 0-1.005-.447-1.005-1s.442-1 .994-1h.011c.552 0 1 .447 1 1s-.448 1-1 1z"/><path d="m7.029 7.998c-.553 0-1.005-.447-1.005-1s.442-1 .994-1h.011c.552 0 1 .447 1 1s-.448 1-1 1z"/><path d="m10.032 7.998c-.553 0-1.005-.447-1.005-1s.442-1 .994-1h.011c.552 0 1 .447 1 1s-.448 1-1 1z"/><path d="m1 60.002c-.553 0-1-.447-1-1v-52.004c0-.553.447-1 1-1s1 .447 1 1v52.004c0 .553-.447 1-1 1z"/><path d="m63 60.002c-.553 0-1-.447-1-1v-52.004c0-.553.447-1 1-1s1 .447 1 1v52.004c0 .553-.447 1-1 1z"/><path d="m63 9.998h-62c-.553 0-1-.447-1-1s.447-1 1-1h62c.553 0 1 .447 1 1s-.447 1-1 1z"/><path d="m63 60.002h-62c-.553 0-1-.447-1-1s.447-1 1-1h62c.553 0 1 .447 1 1s-.447 1-1 1z"/><path d="m58.999 55.999h-53.998c-.553 0-1-.447-1-1v-35.999c0-.553.447-1 1-1s1 .447 1 1v34.999h51.998v-39.998h-34.985c-.553 0-1-.447-1-1s.447-1 1-1h35.985c.553 0 1 .447 1 1v41.998c0 .553-.447 1-1 1z"/><path d="m23.014 55.999c-.553 0-1-.447-1-1v-41.998c0-.553.447-1 1-1s1 .447 1 1v41.998c0 .553-.448 1-1 1z"/><path d="m41.027 55.999c-.553 0-1-.447-1-1v-41.998c0-.553.447-1 1-1s1 .447 1 1v41.998c0 .553-.447 1-1 1z"/><path d="m58.999 20h-53.998c-.553 0-1-.447-1-1s.447-1 1-1h53.998c.553 0 1 .447 1 1s-.447 1-1 1z"/><path d="m58.999 26h-53.998c-.553 0-1-.447-1-1s.447-1 1-1h53.998c.553 0 1 .447 1 1s-.447 1-1 1z"/><path d="m58.999 32h-53.998c-.553 0-1-.447-1-1s.447-1 1-1h53.998c.553 0 1 .447 1 1s-.447 1-1 1z"/><path d="m58.999 38h-53.998c-.553 0-1-.447-1-1s.447-1 1-1h53.998c.553 0 1 .447 1 1s-.447 1-1 1z"/><path d="m58.999 44h-53.998c-.553 0-1-.447-1-1s.447-1 1-1h53.998c.553 0 1 .447 1 1s-.447 1-1 1z"/><path d="m58.999 50h-53.998c-.553 0-1-.447-1-1s.447-1 1-1h53.998c.553 0 1 .447 1 1s-.447 1-1 1z"/><path d="m35.998 17h-7.996c-.553 0-1-.447-1-1s.447-1 1-1h7.996c.553 0 1 .447 1 1s-.447 1-1 1z"/><path d="m17.997 23h-7.996c-.553 0-1-.447-1-1s.447-1 1-1h7.996c.553 0 1 .447 1 1s-.447 1-1 1z"/><path d="m33 23h-2c-.553 0-1-.447-1-1s.447-1 1-1h2c.553 0 1 .447 1 1s-.447 1-1 1z"/><path d="m33 29h-2c-.553 0-1-.447-1-1s.447-1 1-1h2c.553 0 1 .447 1 1s-.447 1-1 1z"/><path d="m33 35h-2c-.553 0-1-.447-1-1s.447-1 1-1h2c.553 0 1 .447 1 1s-.447 1-1 1z"/><path d="m33 41h-2c-.553 0-1-.447-1-1s.447-1 1-1h2c.553 0 1 .447 1 1s-.447 1-1 1z"/><path d="m33 47h-2c-.553 0-1-.447-1-1s.447-1 1-1h2c.553 0 1 .447 1 1s-.447 1-1 1z"/><path d="m33 53h-2c-.553 0-1-.447-1-1s.447-1 1-1h2c.553 0 1 .447 1 1s-.447 1-1 1z"/><path d="m51 23h-2c-.553 0-1-.447-1-1s.447-1 1-1h2c.553 0 1 .447 1 1s-.447 1-1 1z"/><path d="m51 29h-2c-.553 0-1-.447-1-1s.447-1 1-1h2c.553 0 1 .447 1 1s-.447 1-1 1z"/><path d="m51 35h-2c-.553 0-1-.447-1-1s.447-1 1-1h2c.553 0 1 .447 1 1s-.447 1-1 1z"/><path d="m51 41h-2c-.553 0-1-.447-1-1s.447-1 1-1h2c.553 0 1 .447 1 1s-.447 1-1 1z"/><path d="m51 47h-2c-.553 0-1-.447-1-1s.447-1 1-1h2c.553 0 1 .447 1 1s-.447 1-1 1z"/><path d="m51 53h-2c-.553 0-1-.447-1-1s.447-1 1-1h2c.553 0 1 .447 1 1s-.447 1-1 1z"/><path d="m17.997 29h-7.996c-.553 0-1-.447-1-1s.447-1 1-1h7.996c.553 0 1 .447 1 1s-.447 1-1 1z"/><path d="m17.997 35h-7.996c-.553 0-1-.447-1-1s.447-1 1-1h7.996c.553 0 1 .447 1 1s-.447 1-1 1z"/><path d="m17.997 41h-7.996c-.553 0-1-.447-1-1s.447-1 1-1h7.996c.553 0 1 .447 1 1s-.447 1-1 1z"/><path d="m17.997 47h-7.996c-.553 0-1-.447-1-1s.447-1 1-1h7.996c.553 0 1 .447 1 1s-.447 1-1 1z"/><path d="m17.997 53h-7.996c-.553 0-1-.447-1-1s.447-1 1-1h7.996c.553 0 1 .447 1 1s-.447 1-1 1z"/><path d="m53.997 17h-7.996c-.553 0-1-.447-1-1s.447-1 1-1h7.996c.553 0 1 .447 1 1s-.447 1-1 1z"/></svg>