<svg id="Capa_1" enable-background="new 0 0 512 512" height="512" viewBox="0 0 512 512" width="512" xmlns="http://www.w3.org/2000/svg"><g><path d="m512 256c0 64.35-23.75 123.16-62.96 168.14-16.206 18.593-53.333 16.543-74.238 29.824-22.27 14.148-28.593 43.23-54.822 49.976-20.45 5.26-41.89 8.06-63.98 8.06s-43.53-2.8-63.98-8.06c-50.85-13.08-95.59-41.4-129.06-79.8-39.21-44.98-62.96-103.79-62.96-168.14 0-141.38 114.62-256 256-256s256 114.62 256 256z" fill="#90d8f9"/><path d="m449.04 126.6v297.54c-10.58 12.13-22.28 23.26-34.94 33.21-2.412 1.9-7.921-1.45-10.402.362-4.451 3.252-5.95 11.568-10.618 14.528-22.27 14.15-46.87 24.95-73.1 31.7h-196.39c-33.49 0-60.63-27.15-60.63-60.63v-316.71c0-33.48 27.14-60.62 60.63-60.62h264.82c33.49 0 60.63 27.14 60.63 60.62z" fill="#b66a54"/><path d="m144.53 503.945h-20.95c-33.48 0-60.62-27.15-60.62-60.63v-316.71c0-33.48 27.14-60.62 60.62-60.62h20.95c-33.48 0-60.62 27.14-60.62 60.62v316.71c0 33.48 27.14 60.63 60.62 60.63z" fill="#a95941"/><path d="m419.08 132.06v307.83c0 6.41-1.82 12.39-4.98 17.46-6.74 5.31-13.75 10.28-21.02 14.89-2.29.5-4.68.77-7.12.77h-184.18c-10.98 0-21.51-4.36-29.27-12.13l-67.47-67.46c-7.76-7.76-12.12-18.29-12.12-29.27v-232.09c0-18.29 14.83-33.12 33.12-33.12h259.92c18.29 0 33.12 14.83 33.12 33.12z" fill="#f9f6f9"/><path d="m292.882 126.165h-73.764c-25.274 0-45.836-20.562-45.836-45.836v-9.457c0-25.274 20.562-45.836 45.836-45.836h.183c6.268-14.091 20.388-23.823 36.699-23.823s30.431 9.732 36.699 23.823h.183c25.274 0 45.836 20.562 45.836 45.836v9.457c0 25.274-20.562 45.836-45.836 45.836zm-73.764-71.129c-8.732 0-15.836 7.104-15.836 15.836v9.457c0 8.732 7.104 15.836 15.836 15.836h73.764c8.732 0 15.836-7.104 15.836-15.836v-9.457c0-8.732-7.104-15.836-15.836-15.836h-11.765c-7.981 0-14.564-6.25-14.979-14.22-.28-5.385-4.733-9.603-10.138-9.603s-9.857 4.218-10.138 9.603c-.415 7.97-6.998 14.22-14.979 14.22z" fill="#f5de58"/><g><path d="m186.251 80.329v-9.457c0-25.274 20.562-45.836 45.836-45.836h.183c5.42-12.184 16.713-21.103 30.215-23.296-2.113-.343-4.278-.527-6.485-.527-16.311 0-30.431 9.732-36.699 23.823h-.183c-25.274 0-45.836 20.562-45.836 45.836v9.457c0 25.274 20.562 45.836 45.836 45.836h12.969c-25.274 0-45.836-20.562-45.836-45.836z" fill="#eebd56"/></g><g><path d="m168.369 329.572h-18.378c-15.85 0-28.744-12.895-28.744-28.745v-18.378c0-15.85 12.895-28.744 28.744-28.744h18.378c15.85 0 28.744 12.895 28.744 28.744v18.378c0 15.85-12.894 28.745-28.744 28.745zm-18.378-55.867c-4.821 0-8.744 3.922-8.744 8.744v18.378c0 4.822 3.923 8.745 8.744 8.745h18.378c4.821 0 8.744-3.923 8.744-8.745v-18.378c0-4.822-3.923-8.744-8.744-8.744z" fill="#544f57"/><path d="m159.179 308.639c-2.84 0-5.562-1.21-7.469-3.352l-21.076-23.681c-3.672-4.125-3.304-10.447.821-14.118 4.127-3.673 10.447-3.303 14.118.821l12.199 13.707 24.124-38.618c2.927-4.684 9.097-6.109 13.779-3.183 4.685 2.926 6.109 9.095 3.184 13.779l-31.198 49.941c-1.669 2.672-4.499 4.401-7.638 4.667-.282.025-.564.037-.844.037z" fill="#b3e59f"/><g fill="#544f57"><path d="m395.113 285.737h-159.277c-5.604 0-10.148-4.543-10.148-10.148 0-5.604 4.543-10.148 10.148-10.148h159.277c5.604 0 10.148 4.543 10.148 10.148-.001 5.605-4.544 10.148-10.148 10.148z"/><path d="m351.337 317.836h-115.501c-5.604 0-10.148-4.543-10.148-10.148 0-5.604 4.543-10.148 10.148-10.148h115.501c5.604 0 10.148 4.543 10.148 10.148 0 5.604-4.544 10.148-10.148 10.148z"/></g></g><g><path d="m168.369 423.348h-18.378c-15.85 0-28.744-12.895-28.744-28.745v-18.378c0-15.85 12.895-28.744 28.744-28.744h18.378c15.85 0 28.744 12.895 28.744 28.744v18.378c0 15.85-12.894 28.745-28.744 28.745zm-18.378-55.866c-4.821 0-8.744 3.922-8.744 8.744v18.378c0 4.822 3.923 8.745 8.744 8.745h18.378c4.821 0 8.744-3.923 8.744-8.745v-18.378c0-4.822-3.923-8.744-8.744-8.744z" fill="#544f57"/><path d="m159.179 402.415c-2.84 0-5.562-1.21-7.469-3.352l-21.076-23.681c-3.672-4.125-3.304-10.447.821-14.118 4.127-3.673 10.447-3.303 14.118.821l12.199 13.707 24.124-38.618c2.927-4.684 9.097-6.109 13.779-3.183 4.685 2.926 6.109 9.095 3.184 13.779l-31.198 49.941c-1.669 2.672-4.499 4.401-7.638 4.667-.282.026-.564.037-.844.037z" fill="#b3e59f"/><g fill="#544f57"><path d="m395.113 379.513h-159.277c-5.604 0-10.148-4.543-10.148-10.148 0-5.604 4.543-10.148 10.148-10.148h159.277c5.604 0 10.148 4.543 10.148 10.148-.001 5.605-4.544 10.148-10.148 10.148z"/><path d="m351.337 411.612h-115.501c-5.604 0-10.148-4.543-10.148-10.148 0-5.604 4.543-10.148 10.148-10.148h115.501c5.604 0 10.148 4.543 10.148 10.148 0 5.605-4.544 10.148-10.148 10.148z"/></g></g><g fill="#dddaec"><path d="m92.918 364.144v-7.067c0 13.375 10.846 24.22 24.22 24.22h34.373c18.289 0 33.116 14.827 33.116 33.116v34.373c0 13.375 10.846 24.22 24.22 24.22h-7.067c-10.981 0-21.511-4.365-29.278-12.125l-67.46-67.46c-7.759-7.766-12.124-18.296-12.124-29.277z"/><path d="m253.954 175.914h-114.726c-6.612 0-11.971-5.36-11.971-11.971 0-6.612 5.36-11.971 11.971-11.971h114.727c6.612 0 11.971 5.36 11.971 11.971 0 6.611-5.36 11.971-11.972 11.971z"/><path d="m253.954 211.191h-114.726c-6.612 0-11.971-5.36-11.971-11.971 0-6.612 5.36-11.971 11.971-11.971h114.727c6.612 0 11.971 5.36 11.971 11.971 0 6.611-5.36 11.971-11.972 11.971z"/></g><path d="m389.631 184.758-19.451 19.456c-3.015 3.015-7.901 3.015-10.915 0l-7.707-7.702-9.002 9.007 7.733 7.738c1.452 1.447 2.26 3.408 2.26 5.452v25.564c0 4.31-3.528 7.796-7.859 7.717-4.252-.079-7.576-3.722-7.576-7.974v-22.109l-13.248-13.248-16.405 16.41c-.488.488-1.022.896-1.594 1.222-1.19.692-2.527 1.038-3.864 1.038-1.977 0-3.948-.755-5.458-2.26l-16.3-16.31c-3.02-3.015-3.02-7.901 0-10.915 1.505-1.499 3.481-2.26 5.447-2.26 1.977 0 3.958.76 5.458 2.26l10.853 10.852 1.604-1.604 10.957-10.957c-.503-2.302.136-4.802 1.929-6.595l18.313-18.313-10.847-10.852-13.824 13.825c-1.762 1.762-4.194 2.574-6.527 2.333-1.494-.152-2.947-.739-4.152-1.788-1.777-1.547-2.663-3.691-2.663-5.835 0-1.977.75-3.948 2.26-5.458l4.556-4.556 14.895-14.895c3.015-3.015 7.901-3.015 10.915 0l17.112 17.112c-.257-1.232-.393-2.511-.393-3.822 0-10.286 8.336-18.622 18.622-18.622 10.281 0 18.617 8.336 18.617 18.622 0 10.281-8.336 18.622-18.617 18.622-1.914 0-3.754-.288-5.489-.823.545 2.024.115 4.268-1.332 5.971l6.784 6.779 13.998-13.988c3.009-3.015 7.901-3.015 10.91 0 3.014 3.006 3.014 7.897 0 10.906z" fill="#d0cee7"/></g></svg>